<svg width="93" height="87" viewBox="0 0 93 87" fill="none" xmlns="http://www.w3.org/2000/svg">
<path d="M56.6325 67.8411C53.6564 69.1932 50.1941 70.7936 46.5226 72.3723C44.3274 73.3348 42.0315 74.2845 39.7413 75.1563C38.1913 75.7816 36.6142 76.3399 35.07 76.8474C33.6091 77.3295 32.22 77.8225 30.885 78.3173C28.5755 79.1493 26.4288 79.983 24.3227 80.737C21.9234 81.6254 19.4639 82.3641 16.9602 82.9482C16.0542 83.0631 15.1321 82.9801 14.2661 82.7059C13.4 82.4316 12.6137 81.9736 11.9685 81.3676C11.3233 80.7615 10.8368 80.024 10.5472 79.2128C10.2576 78.4015 10.1727 77.5386 10.2991 76.6915C10.8706 74.5165 11.5933 72.1603 12.4303 69.6536L12.4458 69.6409C13.1259 67.4949 13.9048 65.2909 14.7108 63.0978C15.3501 61.3288 16.0321 59.5743 16.7006 57.856C17.1307 56.7776 17.5473 55.71 17.9929 54.6696C18.9384 52.3804 19.911 50.1946 20.8856 48.0884C22.4007 44.8495 23.9449 41.819 25.4736 39.0078C35.8637 48.6141 46.25 58.2251 56.6325 67.8411Z" fill="url(#paint0_radial_290_89)"/>
<path d="M56.5336 67.2685C59.4195 64.5689 54.9706 56.0301 46.5969 48.1966C38.2231 40.3631 29.0955 36.2013 26.2096 38.9009C23.3238 41.6006 27.7726 50.1394 36.1464 57.9729C44.5201 65.8064 53.6478 69.9682 56.5336 67.2685Z" fill="url(#paint1_radial_290_89)"/>
<path d="M54.0151 68.5318C49.7313 68.5318 42.5935 64.6494 35.8026 58.2948C27.109 50.1621 22.7438 41.5038 25.8671 38.5838C27.4171 37.1338 30.5035 37.3459 34.5568 39.1928C39.1517 41.4537 43.3317 44.3857 46.9393 47.8783C55.631 56.011 59.9961 64.6693 56.8748 67.5893C56.4899 67.9175 56.0385 68.1701 55.5472 68.332C55.056 68.4939 54.5349 68.5618 54.0151 68.5318ZM28.7385 38.5349C28.343 38.5085 27.9458 38.5558 27.57 38.674C27.1942 38.7923 26.8472 38.9791 26.5491 39.2236C24.1911 41.4295 27.6225 49.361 36.4846 57.655C45.3467 65.949 53.8291 69.1571 56.187 66.9495C58.545 64.7418 55.1136 56.8103 46.2515 48.5181C42.7197 45.0976 38.6281 42.2251 34.1305 40.0085C32.4675 39.1599 30.6283 38.6572 28.7385 38.5349Z" fill="url(#paint2_linear_290_89)"/>
<path d="M77.4926 36.2422L77.7677 40.7879L81.9276 43.1514L77.3919 44.8026L76.2739 49.2324L73.1933 45.7071L68.3438 46.0804L70.9768 42.2524L69.0974 38.0529L73.8036 39.2111L77.4926 36.2422Z" fill="#FF7E00"/>
<path d="M77.4641 36.3125L77.7354 40.8093L81.8506 43.1474L77.3634 44.7805L76.2571 49.1631L73.2113 45.6759L68.4141 46.0456L71.0181 42.2575L69.16 38.1033L73.8139 39.2506L77.4641 36.3125Z" fill="#FF8000"/>
<path d="M77.4337 36.3828L77.7049 40.8289L81.7737 43.1416L77.3349 44.7566L76.2421 49.0903L73.2293 45.6411L68.4844 46.0072L71.0593 42.2626L69.2206 38.1536L73.8261 39.2864L77.4337 36.3828Z" fill="#FF8100"/>
<path d="M77.3974 36.4531L77.6647 40.8503L81.6889 43.1376L77.3005 44.7344L76.2174 49.021L73.2395 45.6099L68.5469 45.9724L71.0927 42.2676L69.2754 38.204L73.8285 39.3259L77.3974 36.4531Z" fill="#FF8300"/>
<path d="M77.3689 36.5234L77.6324 40.8716L81.612 43.1336L77.272 44.7123L76.2025 48.9499L73.2575 45.5787L68.6172 45.9358L71.1359 42.2727L69.3379 38.2562L73.8407 39.3636L77.3689 36.5234Z" fill="#FF8400"/>
<path d="M77.3404 36.5938L77.6 40.893L81.5351 43.1296L77.2435 44.6902L76.1856 48.8807L73.2736 45.5457L68.6875 45.8991L71.1772 42.2777L69.4005 38.3066L73.8509 39.4031L77.3404 36.5938Z" fill="#FF8700"/>
<path d="M77.3021 36.6562L77.5618 40.9066L81.4503 43.1178L77.2091 44.6602L76.1629 48.8036L73.2838 45.5067L68.75 45.8565L71.2106 42.2768L69.4533 38.3491L73.8534 39.433L77.3021 36.6562Z" fill="#FF8800"/>
<path d="M77.2756 36.7266L77.5313 40.9261L81.3753 43.112L77.1826 44.6363L76.1499 48.7308L73.3037 45.4737L68.8203 45.8181L71.2538 42.2801L69.5178 38.3995L73.8675 39.4707L77.2756 36.7266Z" fill="#FF8A00"/>
<path d="M77.2392 36.7969L77.4911 40.9475L81.2886 43.108L77.1462 44.6142L76.1252 48.6615L73.3139 45.4407L68.8828 45.7833L71.2872 42.2851L69.5726 38.4499L73.8699 39.5084L77.2392 36.7969Z" fill="#FF8C00"/>
<path d="M77.2108 36.8672L77.4587 40.9689L81.2117 43.104L77.1197 44.5921L76.1102 48.5904L73.3319 45.4095L68.9531 45.7466L71.3304 42.292L69.6332 38.5021L73.8802 39.5479L77.2108 36.8672Z" fill="#FF8E00"/>
<path d="M77.1803 36.9375L77.4264 40.9903L81.1347 43.0982L77.0912 44.5699L76.0934 48.5212L73.3479 45.3783L69.0234 45.7118L71.3717 42.2971L69.6958 38.5524L73.8924 39.5856L77.1803 36.9375Z" fill="#FF9000"/>
<path d="M77.144 37.0078L77.3881 41.0098L81.05 43.0924L77.0549 44.546L76.0706 48.4483L73.3581 45.3435L69.0859 45.6734L71.4051 42.3003L69.7505 38.601L73.8948 39.6233L77.144 37.0078Z" fill="#FF9100"/>
<path d="M77.1155 37.0781L77.3557 41.033L80.9731 43.0884L77.0283 44.5239L76.0538 48.3791L73.3761 45.3123L69.1562 45.6367L71.4464 42.3072L69.8111 38.6532L73.907 39.6609L77.1155 37.0781Z" fill="#FF9300"/>
<path d="M77.087 37.1484L77.3234 41.0544L80.8961 43.0844L76.9998 44.5018L76.0388 48.3098L73.3941 45.2793L69.2266 45.6019L71.4876 42.3123L69.8737 38.7036L73.9173 39.7004L77.087 37.1484Z" fill="#FF9500"/>
<path d="M77.0507 37.2109L77.2832 41.0679L80.8114 43.0726L76.9635 44.4718L76.0161 48.2309L73.4024 45.2403L69.2891 45.5575L71.523 42.3095L69.9284 38.7479L73.9197 39.7303L77.0507 37.2109Z" fill="#FF9700"/>
<path d="M77.0202 37.2812L77.2528 41.0875L80.7344 43.0668L76.9369 44.4497L75.9992 48.1599L73.4204 45.2073L69.3594 45.5209L71.5643 42.3128L69.991 38.7965L73.9319 39.768L77.0202 37.2812Z" fill="#FF9900"/>
<path d="M76.9917 37.3516L77.2204 41.1089L80.6575 43.0628L76.9084 44.4276L75.9842 48.0888L73.4384 45.1743L69.4297 45.4843L71.6055 42.3196L70.0516 38.8469L73.9421 39.8057L76.9917 37.3516Z" fill="#FF9B00"/>
<path d="M76.9633 37.4219L77.188 41.1303L80.5806 43.0588L76.8799 44.4054L75.9674 48.0196L73.4564 45.1431L69.5 45.4476L71.6468 42.3247L70.1142 38.8991L73.9543 39.8452L76.9633 37.4219Z" fill="#FF9D00"/>
<path d="M76.9269 37.4922L77.1478 41.1516L80.4958 43.0548L76.8456 44.3833L75.9446 47.9503L73.4666 45.1119L69.5625 45.4128L71.6802 42.3298L70.1689 38.9494L73.9568 39.8829L76.9269 37.4922Z" fill="#FF9E00"/>
<path d="M76.8984 37.5625L77.1174 41.173L80.4208 43.0507L76.819 44.3612L75.9316 47.8793L73.4846 45.0789L69.6328 45.3762L71.7253 42.3366L70.2315 39.0016L73.9689 39.9224L76.8984 37.5625Z" fill="#FFA000"/>
<path d="M76.8621 37.6328L77.0791 41.1926L80.3361 43.0449L76.7827 44.3373L75.9069 47.8082L73.4947 45.0459L69.6953 45.3396L71.7587 42.3399L70.2863 39.0502L73.9733 39.9583L76.8621 37.6328Z" fill="#FFA200"/>
<path d="M76.8336 37.7031L77.0467 41.2139L80.2591 43.0409L76.7561 44.3151L75.892 47.7371L73.5128 45.0148L69.7656 45.3029L71.8 42.3449L70.3488 39.1006L73.9836 39.9978L76.8336 37.7031Z" fill="#FFA400"/>
<path d="M76.8051 37.7656L77.0144 41.2275L80.1822 43.0291L76.7276 44.2852L75.8751 47.6601L73.5308 44.9739L69.8359 45.2603L71.8412 42.344L70.4094 39.1449L73.9938 40.0276L76.8051 37.7656Z" fill="#FFA600"/>
<path d="M76.7669 37.8359L76.9742 41.2489L80.0974 43.0251L76.6913 44.2631L75.8524 47.589L73.5409 44.9428L69.8984 45.2237L71.8747 42.3491L70.4642 39.1953L73.9982 40.0653L76.7669 37.8359Z" fill="#FFA800"/>
<path d="M76.7384 37.9062L76.9418 41.2684L80.0205 43.0175L76.6648 44.2391L75.8355 47.5179L73.557 44.9097L69.9688 45.1852L71.9179 42.3523L70.5268 39.2457L74.0084 40.103L76.7384 37.9062Z" fill="#FFAA00"/>
<path d="M76.7099 37.9766L76.9114 41.2898L79.9436 43.0135L76.6363 44.217L75.8206 47.4487L73.575 44.8768L70.0391 45.1504L71.9591 42.3592L70.5893 39.2961L74.0206 40.1407L76.7099 37.9766Z" fill="#FFAB00"/>
<path d="M76.6736 38.0469L76.8712 41.3112L79.8588 43.0095L76.5999 44.1949L75.7978 47.3776L73.5852 44.8456L70.1016 45.1138L71.9926 42.3643L70.6421 39.3483L74.0231 40.1802L76.6736 38.0469Z" fill="#FFAE00"/>
<path d="M76.6431 38.1172L76.8388 41.3326L79.7819 43.0055L76.5734 44.1728L75.7809 47.3084L73.6032 44.8144L70.1719 45.079L72.0338 42.3693L70.7047 39.3986L74.0333 40.2179L76.6431 38.1172Z" fill="#FFAF00"/>
<path d="M76.6146 38.1875L76.8064 41.3539L79.7049 43.0015L76.5449 44.1506L75.766 47.2373L73.6212 44.7814L70.2422 45.0424L72.0751 42.3744L70.7672 39.449L74.0455 40.2574L76.6146 38.1875Z" fill="#FFB100"/>
<path d="M76.5783 38.2578L76.7682 41.3753L79.6202 42.9957L76.5086 44.1267L75.7413 47.1662L73.6294 44.7484L70.3047 45.0057L72.1085 42.3794L70.8201 39.4994L74.0479 40.2932L76.5783 38.2578Z" fill="#FFB400"/>
<path d="M76.5517 38.3203L76.7378 41.3889L79.5452 42.9839L76.482 44.0986L75.7283 47.0892L73.6494 44.7094L70.375 44.9613L72.1536 42.3767L70.8846 39.5419L74.0621 40.3249L76.5517 38.3203Z" fill="#FFB500"/>
<path d="M76.5213 38.3906L76.7054 41.4103L79.4683 42.9799L76.4554 44.0764L75.7114 47.0181L73.6674 44.6764L70.4453 44.9247L72.1949 42.3818L70.9471 39.5941L74.0723 40.3626L76.5213 38.3906Z" fill="#FFB700"/>
<path d="M76.485 38.4609L76.6652 41.4316L79.3835 42.9759L76.4191 44.0543L75.6887 46.9489L73.6776 44.6452L70.5078 44.8899L72.2283 42.3886L70.9999 39.6445L74.0748 40.4021L76.485 38.4609Z" fill="#FFB900"/>
<path d="M76.4565 38.5312L76.6328 41.4512L79.3066 42.9701L76.3906 44.0304L75.6738 46.876L73.6956 44.6122L70.5781 44.8514L72.2696 42.3919L71.0625 39.6931L74.0869 40.438L76.4565 38.5312Z" fill="#FFBB00"/>
<path d="M76.428 38.6016L76.6024 41.4726L79.2277 42.9661L76.3641 44.0082L75.6569 46.8067L73.7116 44.5792L70.6484 44.8166L72.3108 42.3969L71.1251 39.7452L74.0972 40.4775L76.428 38.6016Z" fill="#FFBC00"/>
<path d="M76.3898 38.6719L76.5622 41.4939L79.1429 42.9621L76.3277 43.9861L75.6341 46.7357L73.7218 44.548L70.7109 44.78L72.3462 42.4038L71.1798 39.7956L74.0996 40.5152L76.3898 38.6719Z" fill="#FFBF00"/>
<path d="M76.3612 38.7422L76.5298 41.5153L79.066 42.9581L76.2992 43.964L75.6172 46.6664L73.7398 44.5168L70.7812 44.7434L72.3874 42.4089L71.2404 39.8478L74.1118 40.5547L76.3612 38.7422Z" fill="#FFC000"/>
<path d="M76.3327 38.8125L76.4974 41.5349L78.9891 42.9522L76.2727 43.9401L75.6023 46.5954L73.7578 44.482L70.8516 44.7067L72.4287 42.4121L71.303 39.8964L74.1221 40.5906L76.3327 38.8125Z" fill="#FFC200"/>
<path d="M76.2964 38.875L76.4573 41.5484L78.9043 42.9386L76.2364 43.9101L75.5776 46.5165L73.768 44.443L70.9141 44.6623L72.4621 42.4094L71.3578 39.9389L74.1264 40.6222L76.2964 38.875Z" fill="#FFC500"/>
<path d="M76.266 38.9453L76.4268 41.5698L78.8274 42.9346L76.2079 43.888L75.5627 46.4472L73.7841 44.4118L70.9844 44.6275L72.5034 42.4162L71.4184 39.9911L74.1367 40.6599L76.266 38.9453Z" fill="#FFC600"/>
<path d="M76.2375 39.0156L76.3944 41.5912L78.7504 42.9306L76.1813 43.8659L75.5478 46.3762L73.8021 44.3788L71.0547 44.5909L72.5466 42.4213L71.4809 40.0415L74.1469 40.6994L76.2375 39.0156Z" fill="#FFC800"/>
<path d="M76.2012 39.0859L76.3542 41.6126L78.6657 42.9266L76.145 43.8437L75.5231 46.3069L73.8122 44.3476L71.1172 44.5561L72.58 42.4264L71.5357 40.0937L74.1513 40.7371L76.2012 39.0859Z" fill="#FFCA00"/>
<path d="M76.1746 39.1562L76.3238 41.6321L78.5907 42.9208L76.1184 43.8198L75.5101 46.2359L73.8322 44.3128L71.1875 44.5176L72.6232 42.4314L71.5982 40.1422L74.1635 40.7748L76.1746 39.1562Z" fill="#FFCC00"/>
<path d="M76.1383 39.2266L76.2856 41.6535L78.5059 42.9168L76.0841 43.7977L75.4854 46.1648L73.8404 44.2816L71.25 44.481L72.6566 42.4365L71.653 40.1926L74.1679 40.8125L76.1383 39.2266Z" fill="#FFCD00"/>
<path d="M76.1079 39.2969L76.2532 41.6749L78.429 42.9128L76.0556 43.7756L75.4704 46.0956L73.8584 44.2504L71.3203 44.4462L72.6979 42.4416L71.7156 40.2448L74.1781 40.852L76.1079 39.2969Z" fill="#FFD000"/>
<path d="M76.0794 39.3594L76.2208 41.6903L78.3521 42.901L76.0271 43.7474L75.4555 46.0167L73.8764 44.2096L71.3906 44.4018L72.7411 42.4406L71.7781 40.2874L74.1884 40.8819L76.0794 39.3594Z" fill="#FFD200"/>
<path d="M76.0431 39.4297L76.1806 41.7098L78.2673 42.8952L75.9927 43.7235L75.4308 45.9456L73.8866 44.1766L71.4531 44.3651L72.7745 42.4439L71.8309 40.3377L74.1927 40.9177L76.0431 39.4297Z" fill="#FFD300"/>
<path d="M76.0146 39.5L76.1483 41.7312L78.1904 42.8912L75.9642 43.7014L75.4159 45.8746L73.9046 44.1454L71.5234 44.3285L72.8157 42.4489L71.8935 40.3881L74.203 40.9572L76.0146 39.5Z" fill="#FFD600"/>
<path d="M75.9841 39.5703L76.1178 41.7526L78.1134 42.8872L75.9357 43.6793L75.399 45.8053L73.9207 44.1124L71.5938 44.2919L72.857 42.4558L71.9561 40.4385L74.2133 40.9949L75.9841 39.5703Z" fill="#FFD700"/>
<path d="M75.9556 39.6406L76.0854 41.7739L78.0365 42.8832L75.9091 43.6571L75.3841 45.7361L73.9387 44.0812L71.6641 44.2571L72.8983 42.4609L72.0167 40.4907L74.2254 41.0344L75.9556 39.6406Z" fill="#FFDA00"/>
<path d="M75.9193 39.7109L76.0453 41.7953L77.9518 42.8792L75.8728 43.635L75.3594 45.665L73.9489 44.0501L71.7266 44.2204L72.9336 42.4659L72.0714 40.5411L74.2279 41.0721L75.9193 39.7109Z" fill="#FFDB00"/>
<path d="M75.8908 39.7812L76.0129 41.8149L77.8748 42.8734L75.8443 43.6111L75.3444 45.5939L73.9669 44.0153L71.7969 44.1838L72.9749 42.4692L72.134 40.5914L74.2401 41.1098L75.8908 39.7812Z" fill="#FFDD00"/>
<path d="M75.8604 39.8516L75.9824 41.8362L77.7979 42.8676L75.8178 43.5889L75.3295 45.5229L73.9849 43.9841L71.8672 44.1472L73.0161 42.4761L72.1946 40.6418L74.2503 41.1475L75.8604 39.8516Z" fill="#FFE000"/>
<path d="M68.2772 48.6172L68.3954 50.5529L70.1663 51.5589L68.2346 52.2621L67.7579 54.1489L66.4463 52.6482L64.3828 52.8077L65.5027 51.1764L64.7025 49.3875L66.7059 49.8823L68.2772 48.6172Z" fill="#FFE100"/>
<path d="M75.7975 39.9844L75.9118 41.8712L77.6381 42.8517L75.7549 43.5369L75.2918 45.3766L74.0131 43.9121L72 44.0679L73.0927 42.4784L72.3139 40.7366L74.2669 41.2169L75.7975 39.9844Z" fill="#FFE400"/>
<path d="M75.7612 40.0547L75.8716 41.8908L77.5534 42.8459L75.7205 43.5129L75.2671 45.3037L74.0233 43.8791L72.0625 44.0295L73.1262 42.4834L72.3686 40.7851L74.2693 41.2546L75.7612 40.0547Z" fill="#FFE500"/>
<path d="M75.7308 40.125L75.8393 41.9121L77.4764 42.8419L75.692 43.4908L75.2522 45.2344L74.0413 43.8479L72.1328 43.9947L73.1694 42.4885L72.4292 40.8373L74.2815 41.2922L75.7308 40.125Z" fill="#FFE700"/>
<path d="M75.7022 40.1953L75.8088 41.9335L77.3995 42.8379L75.6635 43.4687L75.2353 45.1634L74.0593 43.8149L72.2031 43.9581L73.2106 42.4936L72.4918 40.8877L74.2917 41.3317L75.7022 40.1953Z" fill="#FFE900"/>
<path d="M75.6659 40.2656L75.7686 41.9549L77.3147 42.8339L75.6291 43.4466L75.2126 45.0941L74.0675 43.7837L72.2656 43.9232L73.2441 42.5004L72.5466 40.9399L74.2942 41.3694L75.6659 40.2656Z" fill="#FFEB00"/>
<path d="M11.3516 32.4458L14.1435 31.0121L14.4651 28.0469L16.7843 30.0878L19.8979 29.457L18.5397 32.1522L20.1439 34.7259L16.9839 34.3507L14.8623 36.5747L14.2675 33.6475L11.3516 32.4458Z" fill="#FF7E00"/>
<path d="M11.4297 32.4454L14.1771 31.0353L14.4909 28.1172L16.7753 30.1254L19.8365 29.5056L18.5016 32.1573L20.0787 34.6893L16.9709 34.3214L14.8823 36.5072L14.2972 33.6272L11.4297 32.4454Z" fill="#FF8000"/>
<path d="M11.5078 32.4354L14.2106 31.0489L14.5206 28.1797L16.7662 30.1553L19.779 29.5445L18.4634 32.1527L20.0154 34.6431L16.958 34.2806L14.9042 36.432L14.3288 33.5991L11.5078 32.4354Z" fill="#FF8300"/>
<path d="M11.5859 32.4369L14.2442 31.0721L14.5484 28.25L16.7571 30.193L19.7196 29.5912L18.4272 32.1578L19.954 34.6064L16.947 34.2494L14.9281 36.3646L14.3604 33.5787L11.5859 32.4369Z" fill="#FF8500"/>
<path d="M11.6641 32.4365L14.2758 31.0952L14.5761 28.3203L16.7461 30.2307L19.6582 29.6398L18.3891 32.161L19.8888 34.5698L16.9321 34.22L14.9481 36.2989L14.3901 33.5602L11.6641 32.4365Z" fill="#FF8800"/>
<path d="M11.7422 32.4265L14.3094 31.1088L14.6039 28.3828L16.7371 30.2587L19.6007 29.6787L18.351 32.1564L19.8254 34.5236L16.9211 34.1792L14.9701 36.2219L14.4237 33.5303L11.7422 32.4265Z" fill="#FF8B00"/>
<path d="M11.8203 32.4261L14.341 31.132L14.6316 28.4531L16.728 30.2964L19.5393 29.7273L18.3129 32.1615L19.7621 34.4869L16.9062 34.148L14.9901 36.1563L14.4534 33.5118L11.8203 32.4261Z" fill="#FF8E00"/>
<path d="M11.8984 32.4276L14.3765 31.1552L14.6594 28.5234L16.7189 30.3359L19.4799 29.7759L18.2747 32.1666L19.6988 34.4503L16.8952 34.1168L15.012 36.0888L14.485 33.4915L11.8984 32.4276Z" fill="#FF9000"/>
<path d="M11.9766 32.4176L14.4101 31.1688L14.6891 28.5859L16.7099 30.364L19.4224 29.813L18.2386 32.162L19.6355 34.4041L16.8823 34.0778L15.0359 36.0136L14.5166 33.4634L11.9766 32.4176Z" fill="#FF9300"/>
<path d="M12.0547 32.4172L14.4417 31.1919L14.7149 28.6562L16.6989 30.4017L19.361 29.8616L18.2004 32.1671L19.5703 34.3674L16.8694 34.0466L15.0559 35.9461L14.5463 33.4449L12.0547 32.4172Z" fill="#FF9600"/>
<path d="M12.1328 32.415L14.4753 31.2133L14.7446 28.7266L16.6898 30.4376L19.3016 29.9083L18.1623 32.1685L19.5089 34.329L16.8584 34.0136L15.0778 35.8787L14.5779 33.4227L12.1328 32.415Z" fill="#FF9800"/>
<path d="M12.2109 32.4086L14.5069 31.2287L14.7704 28.7891L16.6808 30.4674L19.2421 29.9491L18.1242 32.1657L19.4436 34.2846L16.8435 33.9764L15.0978 35.8053L14.6076 33.3964L12.2109 32.4086Z" fill="#FF9C00"/>
<path d="M12.2891 32.4082L14.5404 31.2519L14.8001 28.8594L16.6717 30.5069L19.1827 29.9976L18.088 32.1708L19.3803 34.2479L16.8325 33.9453L15.1197 35.7378L14.6412 33.3761L12.2891 32.4082Z" fill="#FF9E00"/>
<path d="M12.3672 32.4061L14.5759 31.2733L14.8278 28.9297L16.6626 30.5428L19.1233 30.0426L18.0499 32.1741L19.3189 34.2095L16.8196 33.9122L15.1436 35.6704L14.6728 33.3558L12.3672 32.4061Z" fill="#FFA000"/>
<path d="M12.4453 32.3979L14.6076 31.2886L14.8556 28.9922L16.6516 30.5727L19.0638 30.0833L18.0118 32.1713L19.2537 34.1651L16.8066 33.8751L15.1636 35.5951L14.7025 33.3277L12.4453 32.3979Z" fill="#FFA400"/>
<path d="M12.5234 32.3993L14.6411 31.3118L14.8833 29.0625L16.6445 30.6104L19.0044 30.1319L17.9736 32.1764L19.1904 34.1284L16.7937 33.8439L15.1856 35.5295L14.7341 33.3092L12.5234 32.3993Z" fill="#FFA600"/>
<path d="M12.6016 32.3971L14.6727 31.3332L14.9111 29.1328L16.6335 30.6462L18.943 30.1786L17.9355 32.1796L19.1251 34.09L16.7807 33.8109L15.2056 35.4602L14.7638 33.2889L12.6016 32.3971Z" fill="#FFA900"/>
<path d="M12.6797 32.3889L14.7063 31.3486L14.9388 29.1953L16.6244 30.6779L18.8855 30.2194L17.8993 32.1751L19.0637 34.0456L16.7678 33.7719L15.2275 35.3868L14.7954 33.2608L12.6797 32.3889Z" fill="#FFAC00"/>
<path d="M12.7578 32.3886L14.7399 31.3699L14.9685 29.2656L16.6154 30.7156L18.8261 30.2661L17.8612 32.1801L19.0004 34.0089L16.7568 33.7425L15.2514 35.3194L14.829 33.2423L12.7578 32.3886Z" fill="#FFAF00"/>
<path d="M12.8359 32.3864L14.7734 31.3913L14.9943 29.3359L16.6044 30.7515L18.7647 30.3129L17.8231 32.1834L18.9352 33.9705L16.7439 33.7095L15.2714 35.2519L14.8587 33.2201L12.8359 32.3864Z" fill="#FFB100"/>
<path d="M12.9141 32.38L14.807 31.4067L15.024 29.3984L16.5972 30.7814L18.7072 30.3536L17.7869 32.1806L18.8738 33.9261L16.7309 33.6705L15.2933 35.1767L14.8903 33.1938L12.9141 32.38Z" fill="#FFB500"/>
<path d="M12.9922 32.3796L14.8406 31.4299L15.0518 29.4688L16.5882 30.8191L18.6478 30.4022L17.7487 32.1857L18.8105 33.8894L16.7199 33.6411L15.3153 35.1111L14.9219 33.1735L12.9922 32.3796Z" fill="#FFB700"/>
<path d="M13.0703 32.3774L14.8722 31.4513L15.0795 29.5391L16.5772 30.8549L18.5864 30.4489L17.7106 32.1889L18.7452 33.851L16.7051 33.6081L15.3352 35.0418L14.9516 33.1532L13.0703 32.3774Z" fill="#FFBA00"/>
<path d="M13.1484 32.3693L14.9058 31.4666L15.1072 29.6016L16.5681 30.8866L18.5269 30.4879L17.6725 32.1844L18.6819 33.8066L16.6941 33.5691L15.3591 34.9684L14.9832 33.1251L13.1484 32.3693Z" fill="#FFBD00"/>
<path d="M13.2344 32.3707L14.9452 31.4898L15.1428 29.6719L16.5649 30.9243L18.4753 30.5364L17.6422 32.1894L18.6264 33.7681L16.687 33.5397L15.3869 34.9027L15.0207 33.1066L13.2344 32.3707Z" fill="#FFC000"/>
<path d="M13.3047 32.3685L14.9729 31.5112L15.1628 29.7422L16.55 30.9602L18.4081 30.5832L17.5982 32.1927L18.5553 33.7297L16.6682 33.5067L15.4011 34.8335L15.0465 33.0862L13.3047 32.3685Z" fill="#FFC200"/>
<path d="M13.3828 32.3603L15.0064 31.5266L15.1924 29.8047L16.5409 30.9901L18.3486 30.6239L17.5601 32.1899L18.492 33.6853L16.6572 33.4677L15.423 34.7601L15.0781 33.0581L13.3828 32.3603Z" fill="#FFC600"/>
<path d="M13.4688 32.3599L15.0459 31.5497L15.2261 29.875L16.5378 31.0277L18.297 30.6725L17.5297 32.195L18.4365 33.6486L16.6501 33.4366L15.4508 34.6926L15.1156 33.0396L13.4688 32.3599Z" fill="#FFC800"/>
<path d="M13.5391 32.3596L15.0716 31.5711L15.2479 29.9453L16.5209 31.0654L18.2298 30.7174L17.4838 32.1983L18.3654 33.6102L16.6313 33.4054L15.4669 34.6252L15.1394 33.0175L13.5391 32.3596Z" fill="#FFCB00"/>
<path d="M13.625 32.3514L15.1111 31.5865L15.2816 30.0078L16.5177 31.0953L18.1762 30.7582L17.4535 32.1955L18.3079 33.5658L16.6243 33.3664L15.4947 34.5499L15.1769 32.9912L13.625 32.3514Z" fill="#FFCE00"/>
<path d="M13.7031 32.351L15.1466 31.6097L15.3112 30.0781L16.5106 31.133L18.1187 30.8068L17.4173 32.1988L18.2446 33.5291L16.6132 33.3352L15.5166 34.4843L15.2086 32.9709L13.7031 32.351Z" fill="#FFD100"/>
<path d="M13.7734 32.3488L15.1723 31.6311L15.3312 30.1484L16.4937 31.1689L18.0514 30.8535L17.3714 32.202L18.1754 33.4907L16.5925 33.304L15.5307 34.4151L15.2324 32.9506L13.7734 32.3488Z" fill="#FFD300"/>
<path d="M13.8594 32.3424L15.2118 31.6464L15.3667 30.2109L16.4905 31.1988L17.9979 30.8942L17.3411 32.1993L18.118 33.4462L16.5874 33.265L15.5586 34.3416L15.2718 32.9242L13.8594 32.3424Z" fill="#FFD700"/>
<path d="M13.9375 32.3421L15.2453 31.6696L15.3945 30.2812L16.4814 31.2382L17.9404 30.9428L17.3049 32.2043L18.0547 33.4096L16.5744 33.2338L15.5824 34.2742L15.3034 32.9039L13.9375 32.3421Z" fill="#FFDA00"/>
<path d="M14.0156 32.3399L15.2769 31.691L15.4223 30.3516L16.4724 31.2741L17.879 30.9877L17.2648 32.2076L17.9894 33.3712L16.5615 33.2008L15.6024 34.2068L15.3331 32.8836L14.0156 32.3399Z" fill="#FFDC00"/>
<path d="M14.0938 32.3317L15.3105 31.7064L15.45 30.4141L16.4633 31.304L17.8196 31.0285L17.2286 32.2048L17.9281 33.3268L16.5505 33.1636L15.6244 34.1315L15.3648 32.8555L14.0938 32.3317Z" fill="#FFE000"/>
<path d="M14.1719 32.3313L15.346 31.7296L15.4797 30.4844L16.4542 31.3417L17.7621 31.0771L17.1905 32.2081L17.8647 33.2901L16.5376 33.1324L15.6463 34.0659L15.3964 32.837L14.1719 32.3313Z" fill="#FFE200"/>
<path d="M14.25 32.3309L15.3776 31.7509L15.5055 30.5547L16.4433 31.3776L17.7007 31.1238L17.1524 32.2113L17.7995 33.2517L16.5246 33.0994L15.6663 33.9984L15.4261 32.8149L14.25 32.3309Z" fill="#FFE500"/>
<path d="M14.3281 32.3228L15.4112 31.7663L15.5352 30.6172L16.4342 31.4093L17.6412 31.1646L17.1162 32.2086L17.7381 33.2073L16.5117 33.0623L15.6902 33.9232L15.4596 32.7886L14.3281 32.3228Z" fill="#FFE900"/>
<path d="M14.4062 32.3224L15.4428 31.7895L15.561 30.6875L16.4251 31.4469L17.5818 31.2113L17.0761 32.2136L17.6729 33.1706L16.4988 33.0311L15.7102 33.8576L15.4893 32.7682L14.4062 32.3224Z" fill="#FFEB00"/>
<path d="M41.7578 15.4292L44.1429 15.2171L45.3054 13.2578L46.2606 15.3132L48.6108 15.7427L46.8166 17.2272L47.1053 19.4511L45.0419 18.3129L42.8699 19.2572L43.3892 17.0713L41.7578 15.4292Z" fill="#FF7E00"/>
<path d="M41.8281 15.4602L44.1609 15.2518L45.3001 13.3359L46.2321 15.346L48.5319 15.7665L46.7765 17.2183L47.0594 19.3933L45.0424 18.2804L42.917 19.2048L43.4246 17.0643L41.8281 15.4602Z" fill="#FF8100"/>
<path d="M41.9062 15.4852L44.1867 15.2804L45.2988 13.4062L46.2114 15.3728L48.4608 15.7843L46.7442 17.2034L47.0212 19.3313L45.0469 18.242L42.9699 19.1464L43.4659 17.053L41.9062 15.4852Z" fill="#FF8400"/>
<path d="M41.9844 15.5084L44.2125 15.309L45.3014 13.4766L46.1926 15.3996L48.3917 15.8002L46.7138 17.1886L46.9831 19.2675L45.0553 18.2036L43.0229 19.0881L43.5092 17.0417L41.9844 15.5084Z" fill="#FF8800"/>
<path d="M42.0547 15.5394L44.2324 15.3436L45.2942 13.5547L46.1661 15.4324L48.3128 15.8239L46.6737 17.1797L46.9391 19.2115L45.0539 18.1711L43.0699 19.0339L43.5446 17.0365L42.0547 15.5394Z" fill="#FF8C00"/>
<path d="M42.125 15.5626L44.2524 15.3722L45.2889 13.625L46.1395 15.4593L48.2359 15.8417L46.6355 17.1648L46.8932 19.1477L45.0545 18.1327L43.117 18.9755L43.5801 17.0252L42.125 15.5626Z" fill="#FF9000"/>
<path d="M42.2031 15.5857L44.2782 15.3991L45.2915 13.6953L46.1207 15.4824L48.1648 15.8576L46.6051 17.1481L46.8551 19.0839L45.0609 18.0924L43.1719 18.9153L43.6233 17.0122L42.2031 15.5857Z" fill="#FF9300"/>
<path d="M42.2734 15.6167L44.2962 15.4355L45.2824 13.7734L46.0923 15.5171L48.0859 15.8832L46.5631 17.1411L46.8091 19.0279L45.0596 18.0618L43.217 18.8647L43.6568 17.0088L42.2734 15.6167Z" fill="#FF9700"/>
<path d="M42.3516 15.6399L44.322 15.4623L45.2849 13.8438L46.0735 15.5421L48.0168 15.8973L46.5327 17.1244L46.771 18.9641L45.066 18.0216L43.2699 18.8027L43.7001 16.9957L42.3516 15.6399Z" fill="#FF9B00"/>
<path d="M42.4219 15.6631L44.3419 15.4909L45.2778 13.9141L46.0469 15.5689L47.9379 15.9151L46.4945 17.1095L46.727 18.9003L45.0666 17.9849L43.317 18.7444L43.7355 16.9844L42.4219 15.6631Z" fill="#FF9E00"/>
<path d="M42.5 15.6941L44.3678 15.5256L45.2803 13.9922L46.0262 15.6017L47.8688 15.9388L46.4622 17.1006L46.6889 18.8424L45.073 17.9525L43.3719 18.692L43.7787 16.9792L42.5 15.6941Z" fill="#FFA200"/>
<path d="M42.5703 15.7173L44.3858 15.5542L45.2712 14.0625L45.9978 15.6285L47.788 15.9566L46.4221 17.0858L46.6429 18.7804L45.0716 17.9141L43.417 18.6336L43.8123 16.9661L42.5703 15.7173Z" fill="#FFA600"/>
<path d="M42.6484 15.7483L44.4116 15.5888L45.2737 14.1406L45.979 15.6613L47.7189 15.9785L46.3897 17.0769L46.6048 18.7226L45.0781 17.8816L43.4719 18.5794L43.8555 16.9609L42.6484 15.7483Z" fill="#FFAA00"/>
<path d="M42.7188 15.7715L44.4315 15.6192L45.2666 14.2109L45.9524 15.6881L47.6419 15.9963L46.3516 17.062L46.5589 18.6606L45.0786 17.8432L43.517 18.5211L43.8909 16.9496L42.7188 15.7715Z" fill="#FFAE00"/>
<path d="M42.7969 15.8025L44.4592 15.6539L45.2691 14.2891L45.9337 15.7209L47.5709 16.02L46.3212 17.0531L46.5227 18.6028L45.0851 17.8107L43.5719 18.4687L43.9342 16.9444L42.7969 15.8025Z" fill="#FFB100"/>
<path d="M42.8672 15.8257L44.4772 15.6825L45.2619 14.3594L45.9071 15.7477L47.4939 16.0377L46.2811 17.0382L46.4768 18.5408L45.0856 17.7723L43.6189 18.4103L43.9696 16.9331L42.8672 15.8257Z" fill="#FFB500"/>
<path d="M42.9453 15.8489L44.5031 15.7093L45.2626 14.4297L45.8864 15.7728L47.4209 16.0537L46.2487 17.0216L46.4386 18.4752L45.0901 17.7321L43.6719 18.3483L44.0109 16.9201L42.9453 15.8489Z" fill="#FFB900"/>
<path d="M43.0156 15.8799L44.5211 15.7457L45.2573 14.5078L45.8599 15.8056L47.344 16.0774L46.2106 17.0145L46.3927 18.421L45.0887 17.7014L43.717 18.2977L44.0464 16.9166L43.0156 15.8799Z" fill="#FFBC00"/>
<path d="M43.0938 15.9031L44.5488 15.7726L45.2579 14.5781L45.8392 15.8306L47.2729 16.0934L46.1783 16.9978L46.3565 18.3554L45.0971 17.6612L43.7719 18.2376L44.0896 16.9036L43.0938 15.9031Z" fill="#FFC000"/>
<path d="M43.1641 15.9262L44.5668 15.8012L45.2527 14.6484L45.8126 15.8574L47.196 16.1111L46.1401 16.9848L46.3106 18.2916L45.0957 17.6228L43.8189 18.1792L44.1251 16.8923L43.1641 15.9262Z" fill="#FFC500"/>
<path d="M43.2422 15.9572L44.5926 15.8358L45.2514 14.7266L45.7919 15.8902L47.1249 16.1349L46.1078 16.9759L46.2705 18.2356L45.1022 17.5903L43.8719 18.125L44.1664 16.8871L43.2422 15.9572Z" fill="#FFC800"/>
<path d="M43.3125 15.9804L44.6106 15.8644L45.2461 14.7969L45.7654 15.917L47.0461 16.1508L46.0676 16.961L46.2265 18.1718L45.1008 17.5519L43.9189 18.0666L44.2018 16.8758L43.3125 15.9804Z" fill="#FFCC00"/>
<path d="M43.3906 16.0114L44.6384 15.8991L45.2468 14.875L45.7466 15.9498L46.9769 16.1746L46.0373 16.9521L46.1884 18.1158L45.1092 17.5194L43.9719 18.0142L44.2451 16.8687L43.3906 16.0114Z" fill="#FFD000"/>
<path d="M43.4609 16.0346L44.6583 15.9277L45.2415 14.9453L45.7201 15.9766L46.8981 16.1923L45.9991 16.9373L46.1444 18.0519L45.1078 17.481L44.0189 17.9559L44.2805 16.8575L43.4609 16.0346Z" fill="#FFD300"/>
<path d="M43.5312 16.0656L44.6763 15.9623L45.2343 15.0234L45.6935 16.0094L46.8211 16.2161L45.9589 16.9284L46.0984 17.9959L45.1084 17.4486L44.066 17.9017L44.3159 16.8522L43.5312 16.0656Z" fill="#FFD700"/>
<path d="M43.6094 16.0888L44.7021 15.9909L45.2349 15.0938L45.6728 16.0363L46.7501 16.2338L45.9266 16.9135L46.0584 17.9321L45.1129 17.4101L44.1189 17.8433L44.3572 16.841L43.6094 16.0888Z" fill="#FFDB00"/>
<path d="M43.6875 16.112L44.7279 16.0177L45.2356 15.1641L45.6521 16.0612L46.679 16.2479L45.8963 16.8968L46.0222 17.8683L45.1212 17.3699L44.1738 17.7831L44.4005 16.8279L43.6875 16.112Z" fill="#FFE000"/>
<path d="M43.7578 16.143L44.7479 16.0542L45.2303 15.2422L45.6256 16.0959L46.6021 16.2735L45.8561 16.8898L45.9763 17.8123L45.1199 17.3392L44.2189 17.7326L44.4359 16.8245L43.7578 16.143Z" fill="#FFE400"/>
<path d="M43.8281 16.1662L44.7659 16.0828L45.2251 15.3125L45.599 16.1209L46.5232 16.2894L45.8179 16.8731L45.9323 17.7467L45.1204 17.3008L44.266 17.6724L44.4714 16.8114L43.8281 16.1662Z" fill="#FFE700"/>
<path d="M43.9062 16.1894L44.7917 16.1114L45.2238 15.3828L45.5783 16.1459L46.4521 16.3072L45.7856 16.8582L45.8922 17.6847L45.1249 17.2624L44.3189 17.6122L44.5127 16.8002L43.9062 16.1894Z" fill="#FFEB00"/>
<path d="M78.0021 59.568L80.2632 60.3075L82.1949 58.9844L82.1426 61.2246L84.0839 62.5369L81.7899 63.1803L81.0556 65.3136L79.6936 63.4721L77.2969 63.4794L78.7481 61.6959L78.0021 59.568Z" fill="#FF7E00"/>
<path d="M78.055 59.6238L80.2676 60.347L82.1586 59.0547L82.1063 61.246L84.007 62.5292L81.7614 63.1582L81.0446 65.2462L79.7096 63.4427L77.3672 63.45L78.7874 61.7064L78.055 59.6238Z" fill="#FF8100"/>
<path d="M78.1118 59.6736L80.274 60.3823L82.1243 59.1172L82.072 61.2596L83.9301 62.5138L81.7349 63.1301L81.0335 65.1709L79.7296 63.4092L77.4375 63.4164L78.8267 61.7109L78.1118 59.6736Z" fill="#FF8400"/>
<path d="M78.1666 59.7234L80.2804 60.4158L82.0881 59.1797L82.0377 61.2731L83.8531 62.5002L81.7083 63.1019L81.0224 65.0975L79.7476 63.3738L77.5078 63.3811L78.8641 61.7136L78.1666 59.7234Z" fill="#FF8800"/>
<path d="M78.2214 59.7811L80.2867 60.4571L82.0518 59.25L82.0034 61.2963L83.7762 62.4944L81.6817 63.0816L81.0114 65.0301L79.7656 63.3481L77.5781 63.3535L78.9034 61.7259L78.2214 59.7811Z" fill="#FF8C00"/>
<path d="M78.2762 59.8327L80.2912 60.4924L82.0156 59.3125L81.9671 61.3099L83.6993 62.4789L81.6533 63.0535L81.0003 64.9566L79.7836 63.3127L77.6484 63.3199L78.9427 61.7304L78.2762 59.8327Z" fill="#FF9000"/>
<path d="M78.3329 59.8825L80.2995 60.5259L81.9813 59.375L81.9348 61.3234L83.6243 62.4653L81.6267 63.0254L80.9892 64.8814L79.8035 63.2791L77.7188 63.2846L78.982 61.7349L78.3329 59.8825Z" fill="#FF9300"/>
<path d="M78.3858 59.9401L80.3039 60.5672L81.9431 59.4453L81.8985 61.3466L83.5454 62.4595L81.6001 63.0051L80.9782 64.8157L79.8215 63.2516L77.7891 63.2588L79.0194 61.7454L78.3858 59.9401Z" fill="#FF9700"/>
<path d="M78.4426 59.9881L80.3103 60.6008L81.9088 59.5078L81.8642 61.3584L83.4704 62.4422L81.5736 62.9751L80.9671 64.7387L79.8395 63.2162L77.8594 63.2216L79.0606 61.7481L78.4426 59.9881Z" fill="#FF9B00"/>
<path d="M78.5032 60.0457L80.3245 60.6421L81.8803 59.5781L81.8377 61.3816L83.3993 62.4364L81.5529 62.9548L80.9639 64.6731L79.8653 63.1904L77.9375 63.1959L79.1058 61.7604L78.5032 60.0457Z" fill="#FF9E00"/>
<path d="M78.56 60.0974L80.3309 60.6756L81.846 59.6406L81.8034 61.3951L83.3243 62.4228L81.5283 62.9267L80.9528 64.5978L79.8853 63.1551L78.0078 63.1605L79.1451 61.7649L78.56 60.0974Z" fill="#FFA200"/>
<path d="M78.6148 60.1472L80.3353 60.7109L81.8078 59.7031L81.7671 61.4087L83.2474 62.4074L81.4997 62.8986L80.9418 64.5244L79.9013 63.1215L78.0781 63.1251L79.1825 61.7676L78.6148 60.1472Z" fill="#FFA600"/>
<path d="M78.6696 60.2048L80.3436 60.7522L81.7735 59.7734L81.7347 61.4319L83.1704 62.4016L81.4732 62.8783L80.9307 64.4569L79.9213 63.0939L78.1484 63.0994L79.2238 61.7799L78.6696 60.2048Z" fill="#FFAA00"/>
<path d="M78.7244 60.2546L80.3481 60.7857L81.7373 59.8359L81.6985 61.4454L83.0935 62.3879L81.4447 62.8501L80.9196 64.3835L79.9393 63.0604L78.2188 63.064L79.2611 61.7844L78.7244 60.2546Z" fill="#FFAE00"/>
<path d="M78.7812 60.3044L80.3544 60.821L81.7029 59.8984L81.6642 61.459L83.0166 62.3743L81.4201 62.822L80.9086 64.3083L79.9592 63.025L78.2891 63.0304L79.3004 61.7889L78.7812 60.3044Z" fill="#FFB100"/>
<path d="M78.8341 60.3602L80.3608 60.8605L81.6647 59.9688L81.6279 61.4804L82.9396 62.3649L81.3916 62.7999L80.8956 64.2408L79.9752 62.9974L78.3594 63.0011L79.3378 61.7976L78.8341 60.3602Z" fill="#FFB500"/>
<path d="M78.8908 60.4119L80.3672 60.894L81.6304 60.0312L81.5956 61.4939L82.8646 62.3512L81.365 62.7717L80.8864 64.1656L79.9952 62.9621L78.4297 62.9675L79.3791 61.8021L78.8908 60.4119Z" fill="#FFB900"/>
<path d="M78.9437 60.4695L80.3716 60.9371L81.5942 60.1016L81.5593 61.5171L82.7858 62.3454L81.3365 62.7514L80.8734 64.0981L80.0132 62.9363L78.5 62.9399L79.4164 61.8144L78.9437 60.4695Z" fill="#FFBC00"/>
<path d="M79.0004 60.5193L80.3799 60.9706L81.5579 60.1641L81.525 61.5307L82.7108 62.33L81.3119 62.7233L80.8643 64.0247L80.0312 62.9009L78.5703 62.9046L79.4558 61.8171L79.0004 60.5193Z" fill="#FFC000"/>
<path d="M79.0553 60.5691L80.3844 61.0041L81.5217 60.2266L81.4907 61.5443L82.6319 62.3164L81.2834 62.6952L80.8513 63.9494L80.0492 62.8674L78.6406 62.871L79.4931 61.8216L79.0553 60.5691Z" fill="#FFC500"/>
<path d="M79.1101 60.6268L80.3908 61.0473L81.4874 60.2969L81.4564 61.5674L82.5569 62.3106L81.2568 62.6749L80.8422 63.8838L80.0691 62.8398L78.7109 62.8434L79.5344 61.8339L79.1101 60.6268Z" fill="#FFC800"/>
<path d="M79.1649 60.6766L80.3971 61.0789L81.4511 60.3594L81.4201 61.5792L82.4799 62.2933L81.2283 62.6449L80.8292 63.8068L80.0871 62.8044L78.7812 62.8081L79.5718 61.8366L79.1649 60.6766Z" fill="#FFCC00"/>
<path d="M79.2216 60.7342L80.4035 61.1221L81.4149 60.4297L81.3877 61.6006L82.403 62.2875L81.2037 62.6246L80.8201 63.7411L80.1051 62.7769L78.8516 62.7805L79.6111 61.8471L79.2216 60.7342Z" fill="#FFD000"/>
<path d="M79.2745 60.784L80.4079 61.1556L81.3786 60.4922L81.3515 61.6159L82.3261 62.2739L81.1752 62.5965L80.8071 63.6659L80.1231 62.7433L78.9219 62.7469L79.6504 61.8516L79.2745 60.784Z" fill="#FFD300"/>
<path d="M79.3312 60.8338L80.4163 61.1891L81.3443 60.5547L81.3172 61.6295L82.2511 62.2584L81.1486 62.5684L80.7979 63.5924L80.1431 62.7079L78.9922 62.7116L79.6897 61.8561L79.3312 60.8338Z" fill="#FFD700"/>
<path d="M79.3841 60.8914L80.4207 61.2322L81.3081 60.625L81.2829 61.6527L82.1722 62.2526L81.1201 62.5481L80.7849 63.525L80.1591 62.6822L79.0625 62.684L79.7271 61.8684L79.3841 60.8914Z" fill="#FFDB00"/>
<path d="M79.4409 60.9431L80.429 61.2657L81.2718 60.6875L81.2486 61.6662L82.0972 62.239L81.0955 62.5199L80.7758 63.4516L80.1791 62.6468L79.1328 62.6504L79.7664 61.8711L79.4409 60.9431Z" fill="#FFE000"/>
<path d="M79.5035 60.9929L80.4412 61.2992L81.2434 60.75L81.2201 61.6798L82.0261 62.2254L81.0748 62.4918L80.7706 63.3763L80.2049 62.6132L79.2109 62.6151L79.8135 61.8756L79.5035 60.9929Z" fill="#FFE400"/>
<path d="M79.5505 61.0487L80.4398 61.3405L81.2012 60.8203L81.1799 61.7012L81.9433 62.2159L81.0404 62.4697L80.7518 63.3089L80.217 62.5839L79.2734 62.5875L79.845 61.8861L79.5505 61.0487Z" fill="#FFE700"/>
<path d="M79.6131 61.0985L80.454 61.374L81.1709 60.8828L81.1515 61.7147L81.8742 62.2023L81.0217 62.4416L80.7485 63.2336L80.2409 62.5503L79.3516 62.5521L79.8902 61.8906L79.6131 61.0985Z" fill="#FFEB00"/>
<path d="M70.8331 27.3433C72.5865 20.5084 51.5821 14.4202 51.1016 7.37681L51.2953 2.39062C53.475 7.97856 74.5201 16.8145 71.7979 23.5769L70.8331 27.3433Z" fill="url(#paint3_linear_290_89)"/>
<path d="M53.3594 28.5066C55.1128 21.6717 69.5685 32.2676 70.9325 26.9515L71.9012 23.1851C70.545 28.5012 56.0835 17.9071 54.3281 24.742L53.3594 28.5066Z" fill="url(#paint4_linear_290_89)"/>
<path d="M58.8002 43.6802C60.0615 38.1702 51.6024 34.7591 53.4643 28.0927L54.4331 24.3281C53.0768 29.6442 61.5204 33.0716 59.767 39.9066L58.8002 43.6802Z" fill="url(#paint5_linear_290_89)"/>
<path d="M40.3964 57.0264C42.1498 50.1915 57.4348 49.0043 58.8026 43.6883L59.7714 39.9219C58.3958 44.5383 41.1714 43.0793 39.4141 50.2785L40.3964 57.0264Z" fill="url(#paint6_linear_290_89)"/>
<path d="M47.1177 59.8375C44.9843 60.0554 42.8892 60.5262 40.8828 61.2386L40.9003 61.2513C41.6539 61.7787 42.1306 62.1231 42.3611 62.288C42.6769 62.5128 43.1361 62.8318 43.7367 63.2052C45.8577 62.9536 48.0018 62.9202 50.1305 63.1055C51.2674 63.2124 52.3978 63.3733 53.5173 63.5876C60.6766 65.0698 67.0166 68.9344 71.3578 74.4626C71.7007 73.0307 72.0436 71.6152 72.3846 70.2014C69.3626 66.7132 65.492 63.9523 61.0964 62.1493C56.7008 60.3463 51.9077 59.5537 47.1177 59.8375Z" fill="url(#paint7_linear_290_89)"/>
<path d="M24.7875 28.9508C23.129 23.2849 38.1059 20.1094 36.8368 15.7758L34.7211 10.2422C35.9901 14.5741 21.6313 19.6962 23.2898 25.3621L24.7875 28.9508Z" fill="url(#paint8_linear_290_89)"/>
<path d="M39.4386 36.3791C37.7801 30.7132 25.1127 32.5148 23.8437 28.1829L23.1094 24.3984C24.3765 28.7321 37.0458 26.9359 38.7043 32.5964L39.4386 36.3791Z" fill="url(#paint9_linear_290_89)"/>
<path d="M32.5779 49.2135C30.7973 43.5784 41.0312 39.2973 39.6691 34.989L38.2083 31.3984C39.5645 35.7068 29.3345 39.9897 31.1151 45.6229L32.5779 49.2135Z" fill="url(#paint10_linear_290_89)"/>
<path d="M50.3766 46.2196C49.1075 46.135 47.8999 45.6755 46.9279 44.9074C46.1778 44.3024 45.601 43.5317 45.25 42.6653C45.9682 41.5307 46.6863 40.3949 47.4045 39.2578C47.8698 40.3011 48.6753 41.1802 49.7062 41.7699C50.2891 42.0934 50.9309 42.3134 51.5992 42.4188L50.3766 46.2196Z" fill="url(#paint11_linear_290_89)"/>
<path d="M45.9992 33.2249C45.4692 33.7659 44.8128 34.1849 44.0811 34.4493C43.3494 34.7137 42.5623 34.8164 41.7812 34.7493V31.7024C43.0467 31.7428 44.2969 31.4332 45.3753 30.8125L45.9992 33.2249Z" fill="url(#paint12_linear_290_89)"/>
<path d="M77.1891 11.4778C76.398 12.281 75.405 12.8866 74.3003 13.2396C73.808 13.3938 73.2982 13.4942 72.7812 13.5386V10.0115C73.2543 9.91069 73.7171 9.77182 74.1646 9.59644C74.9849 9.2751 75.747 8.8367 76.4238 8.29688L77.1891 11.4778Z" fill="url(#paint13_linear_290_89)"/>
<path d="M15.5078 13.1063C15.7821 13.7925 16.222 14.4103 16.7933 14.9114C17.3646 15.4125 18.0519 15.7835 18.8016 15.9954L20.0183 13.1679C19.5981 13.0264 19.1949 12.8441 18.8151 12.6242C18.1288 12.2158 17.5296 11.6915 17.0481 11.0781L15.5078 13.1063Z" fill="url(#paint14_linear_290_89)"/>
<path d="M68.3063 54.4153C67.5156 55.221 66.5227 55.8296 65.4174 56.1861C64.9251 56.3402 64.4154 56.4406 63.8984 56.4852V52.949C65.2423 52.6612 66.4915 52.0729 67.539 51.2344L68.3063 54.4153Z" fill="url(#paint15_linear_290_89)"/>
<path d="M81.9133 32.152C80.324 31.817 78.8644 31.0782 77.6953 30.0169L78.8927 26.8359C79.2776 27.4789 79.8018 28.0396 80.4317 28.4822C81.0616 28.9247 81.7833 29.2394 82.5507 29.4061L81.9133 32.152Z" fill="url(#paint16_linear_290_89)"/>
<defs>
<radialGradient id="paint0_radial_290_89" cx="0" cy="0" r="1" gradientUnits="userSpaceOnUse" gradientTransform="translate(2.57387 30.6936) rotate(43.0908) scale(96.6161 96.4017)">
<stop stop-color="#934A0C"/>
<stop offset="0.106" stop-color="#FF7E00"/>
<stop offset="0.186" stop-color="#FFEB00"/>
<stop offset="0.234" stop-color="#FFEF45"/>
<stop offset="0.284" stop-color="#FFF287"/>
<stop offset="0.298" stop-color="#FFF27E"/>
<stop offset="0.322" stop-color="#FFF065"/>
<stop offset="0.351" stop-color="#FFEE3C"/>
<stop offset="0.386" stop-color="#FFEB04"/>
<stop offset="0.388" stop-color="#FFEB00"/>
<stop offset="0.545" stop-color="#FF7E00"/>
<stop offset="0.93" stop-color="#6D3913"/>
</radialGradient>
<radialGradient id="paint1_radial_290_89" cx="0" cy="0" r="1" gradientUnits="userSpaceOnUse" gradientTransform="translate(31.3781 21.679) rotate(43.0908) scale(38.6669 39.4086)">
<stop stop-color="#993712"/>
<stop offset="1" stop-color="#FC520E"/>
</radialGradient>
<linearGradient id="paint2_linear_290_89" x1="22.8891" y1="57.4737" x2="53.1913" y2="49.2479" gradientUnits="userSpaceOnUse">
<stop stop-color="#FFEF56"/>
<stop offset="1" stop-color="#FC6115"/>
</linearGradient>
<linearGradient id="paint3_linear_290_89" x1="73.3183" y1="17.2932" x2="49.2559" y2="11.9354" gradientUnits="userSpaceOnUse">
<stop stop-color="#8E0000"/>
<stop offset="0.293" stop-color="#FF0000"/>
<stop offset="0.428" stop-color="#EA0000"/>
<stop offset="0.708" stop-color="#B40000"/>
<stop offset="1" stop-color="#760000"/>
</linearGradient>
<linearGradient id="paint4_linear_290_89" x1="54.6007" y1="23.793" x2="70.4993" y2="28.4383" gradientUnits="userSpaceOnUse">
<stop stop-color="#8E0000"/>
<stop offset="0.293" stop-color="#FF0000"/>
<stop offset="0.428" stop-color="#EA0000"/>
<stop offset="0.708" stop-color="#B40000"/>
<stop offset="1" stop-color="#760000"/>
</linearGradient>
<linearGradient id="paint5_linear_290_89" x1="60.9521" y1="34.8976" x2="52.4344" y2="33.0015" gradientUnits="userSpaceOnUse">
<stop stop-color="#8E0000"/>
<stop offset="0.293" stop-color="#FF0000"/>
<stop offset="0.428" stop-color="#EA0000"/>
<stop offset="0.708" stop-color="#B40000"/>
<stop offset="1" stop-color="#760000"/>
</linearGradient>
<linearGradient id="paint6_linear_290_89" x1="41.3387" y1="49.8837" x2="57.8804" y2="46.8336" gradientUnits="userSpaceOnUse">
<stop offset="0.293" stop-color="#FF0000"/>
<stop offset="0.428" stop-color="#EA0000"/>
<stop offset="0.708" stop-color="#B40000"/>
<stop offset="1" stop-color="#760000"/>
</linearGradient>
<linearGradient id="paint7_linear_290_89" x1="76.2841" y1="84.7811" x2="49.4195" y2="54.8114" gradientUnits="userSpaceOnUse">
<stop offset="0.188" stop-color="#1E380B"/>
<stop offset="0.598" stop-color="#97CA00"/>
<stop offset="0.648" stop-color="#8FC001"/>
<stop offset="0.733" stop-color="#78A504"/>
<stop offset="0.843" stop-color="#537908"/>
<stop offset="0.927" stop-color="#33530C"/>
</linearGradient>
<linearGradient id="paint8_linear_290_89" x1="17.2776" y1="23.895" x2="38.6933" y2="15.4637" gradientUnits="userSpaceOnUse">
<stop offset="0.188" stop-color="#1E380B"/>
<stop offset="0.598" stop-color="#97CA00"/>
<stop offset="0.648" stop-color="#8FC001"/>
<stop offset="0.733" stop-color="#78A504"/>
<stop offset="0.843" stop-color="#537908"/>
<stop offset="0.927" stop-color="#33530C"/>
</linearGradient>
<linearGradient id="paint9_linear_290_89" x1="12.2869" y1="29.3249" x2="37.5931" y2="30.9463" gradientUnits="userSpaceOnUse">
<stop offset="0.188" stop-color="#1E380B"/>
<stop offset="0.598" stop-color="#97CA00"/>
<stop offset="0.648" stop-color="#8FC001"/>
<stop offset="0.733" stop-color="#78A504"/>
<stop offset="0.843" stop-color="#537908"/>
<stop offset="0.927" stop-color="#33530C"/>
</linearGradient>
<linearGradient id="paint10_linear_290_89" x1="26.6985" y1="46.3359" x2="42.9881" y2="33.4263" gradientUnits="userSpaceOnUse">
<stop offset="0.188" stop-color="#1E380B"/>
<stop offset="0.598" stop-color="#97CA00"/>
<stop offset="0.648" stop-color="#8FC001"/>
<stop offset="0.733" stop-color="#78A504"/>
<stop offset="0.843" stop-color="#537908"/>
<stop offset="0.927" stop-color="#33530C"/>
</linearGradient>
<linearGradient id="paint11_linear_290_89" x1="132.643" y1="130.378" x2="128.519" y2="121.057" gradientUnits="userSpaceOnUse">
<stop offset="0.188" stop-color="#1E380B"/>
<stop offset="0.598" stop-color="#97CA00"/>
<stop offset="0.648" stop-color="#8FC001"/>
<stop offset="0.733" stop-color="#78A504"/>
<stop offset="0.843" stop-color="#537908"/>
<stop offset="0.927" stop-color="#33530C"/>
</linearGradient>
<linearGradient id="paint12_linear_290_89" x1="139.972" y1="133.443" x2="140.852" y2="126.442" gradientUnits="userSpaceOnUse">
<stop offset="0.188" stop-color="#1E380B"/>
<stop offset="0.598" stop-color="#97CA00"/>
<stop offset="0.648" stop-color="#8FC001"/>
<stop offset="0.733" stop-color="#78A504"/>
<stop offset="0.843" stop-color="#537908"/>
<stop offset="0.927" stop-color="#33530C"/>
</linearGradient>
<linearGradient id="paint13_linear_290_89" x1="163.217" y1="104.032" x2="164.601" y2="98.1408" gradientUnits="userSpaceOnUse">
<stop offset="0.188" stop-color="#1E380B"/>
<stop offset="0.598" stop-color="#97CA00"/>
<stop offset="0.648" stop-color="#8FC001"/>
<stop offset="0.733" stop-color="#78A504"/>
<stop offset="0.843" stop-color="#537908"/>
<stop offset="0.927" stop-color="#33530C"/>
</linearGradient>
<linearGradient id="paint14_linear_290_89" x1="21.6038" y1="15.3959" x2="15.2483" y2="11.5883" gradientUnits="userSpaceOnUse">
<stop offset="0.188" stop-color="#1E380B"/>
<stop offset="0.598" stop-color="#97CA00"/>
<stop offset="0.648" stop-color="#8FC001"/>
<stop offset="0.733" stop-color="#78A504"/>
<stop offset="0.843" stop-color="#537908"/>
<stop offset="0.927" stop-color="#33530C"/>
</linearGradient>
<linearGradient id="paint15_linear_290_89" x1="117.262" y1="112.083" x2="118.646" y2="106.194" gradientUnits="userSpaceOnUse">
<stop offset="0.188" stop-color="#1E380B"/>
<stop offset="0.598" stop-color="#97CA00"/>
<stop offset="0.648" stop-color="#8FC001"/>
<stop offset="0.733" stop-color="#78A504"/>
<stop offset="0.843" stop-color="#537908"/>
<stop offset="0.927" stop-color="#33530C"/>
</linearGradient>
<linearGradient id="paint16_linear_290_89" x1="145.909" y1="99.2423" x2="143.502" y2="92.5457" gradientUnits="userSpaceOnUse">
<stop offset="0.188" stop-color="#1E380B"/>
<stop offset="0.598" stop-color="#97CA00"/>
<stop offset="0.648" stop-color="#8FC001"/>
<stop offset="0.733" stop-color="#78A504"/>
<stop offset="0.843" stop-color="#537908"/>
<stop offset="0.927" stop-color="#33530C"/>
</linearGradient>
</defs>
</svg>
