<svg width="77" height="79" viewBox="0 0 77 79" fill="none" xmlns="http://www.w3.org/2000/svg">
<path d="M54.5694 69.1094L22.486 69.1406C15.4277 69.1472 9.64788 63.2288 9.63986 55.9871L9.60938 23.0705C9.60296 15.8288 15.3715 9.89888 22.4299 9.89065L54.5132 9.85938C61.5715 9.8528 67.3514 15.7712 67.3594 23.0129L67.3899 55.9295C67.3979 63.1729 61.6277 69.1028 54.5694 69.1094Z" fill="url(#paint0_radial_288_56)"/>
<path d="M54.5694 69.1094L22.486 69.1406C15.4277 69.1472 9.64788 63.2288 9.63986 55.9871L9.60938 23.0705C9.60296 15.8288 15.3715 9.89888 22.4299 9.89065L54.5132 9.85938C61.5715 9.8528 67.3514 15.7712 67.3594 23.0129L67.3899 55.9295C67.3979 63.1729 61.6277 69.1028 54.5694 69.1094Z" fill="url(#paint1_radial_288_56)"/>
<path d="M38.5026 51.0182C32.3121 51.0182 27.2734 45.8503 27.2734 39.4974C27.2734 33.1445 32.3121 27.9766 38.5026 27.9766C44.6931 27.9766 49.7318 33.1445 49.7318 39.4974C49.7318 45.8503 44.6931 51.0182 38.5026 51.0182ZM38.5026 31.2682C34.0799 31.2682 30.4818 34.9598 30.4818 39.4974C30.4818 44.035 34.0799 47.7266 38.5026 47.7266C42.9253 47.7266 46.5234 44.035 46.5234 39.4974C46.5234 34.9598 42.9253 31.2682 38.5026 31.2682Z" fill="white"/>
<path d="M50.5312 29.625C51.8602 29.625 52.9375 28.5197 52.9375 27.1562C52.9375 25.7928 51.8602 24.6875 50.5312 24.6875C49.2023 24.6875 48.125 25.7928 48.125 27.1562C48.125 28.5197 49.2023 29.625 50.5312 29.625Z" fill="white"/>
<path d="M48.4792 60.7917H29.2292C23.0387 60.7917 18 55.6237 18 49.2708V29.5208C18 23.1679 23.0387 18 29.2292 18H48.4792C54.6696 18 59.7083 23.1679 59.7083 29.5208V49.2708C59.7083 55.6237 54.6696 60.7917 48.4792 60.7917ZM29.2292 21.2917C24.8065 21.2917 21.2083 24.9833 21.2083 29.5208V49.2708C21.2083 53.8084 24.8065 57.5 29.2292 57.5H48.4792C52.9019 57.5 56.5 53.8084 56.5 49.2708V29.5208C56.5 24.9833 52.9019 21.2917 48.4792 21.2917H29.2292Z" fill="white"/>
<defs>
<radialGradient id="paint0_radial_288_56" cx="0" cy="0" r="1" gradientUnits="userSpaceOnUse" gradientTransform="translate(31.0892 69.1834) scale(72.0255 73.8963)">
<stop stop-color="#FFDD55"/>
<stop offset="0.328" stop-color="#FF543F"/>
<stop offset="0.348" stop-color="#FC5245"/>
<stop offset="0.504" stop-color="#E64771"/>
<stop offset="0.643" stop-color="#D53E91"/>
<stop offset="0.761" stop-color="#CC39A4"/>
<stop offset="0.841" stop-color="#C837AB"/>
</radialGradient>
<radialGradient id="paint1_radial_288_56" cx="0" cy="0" r="1" gradientUnits="userSpaceOnUse" gradientTransform="translate(18.9071 9.11925) scale(47.825 32.6935)">
<stop stop-color="#4168C9"/>
<stop offset="0.999" stop-color="#4168C9" stop-opacity="0"/>
</radialGradient>
</defs>
</svg>
