<svg width="291" height="79" viewBox="0 0 291 79" fill="none" xmlns="http://www.w3.org/2000/svg">
<path d="M189.821 54.3636C188.732 54.3636 187.9 54.0626 187.327 53.4606C186.754 52.8586 186.467 52.0129 186.467 50.9236V27.0586C186.467 25.9406 186.754 25.0949 187.327 24.5216C187.929 23.9482 188.775 23.6616 189.864 23.6616H200.313C203.696 23.6616 206.304 24.4786 208.139 26.1126C209.974 27.7466 210.891 30.0256 210.891 32.9496C210.891 34.8416 210.475 36.4756 209.644 37.8516C208.813 39.2276 207.609 40.2882 206.032 41.0336C204.484 41.7789 202.578 42.1516 200.313 42.1516L200.657 41.4206H202.42C203.624 41.4206 204.67 41.7216 205.559 42.3236C206.476 42.8969 207.265 43.7856 207.924 44.9896L210.59 49.9346C210.991 50.6512 211.178 51.3536 211.149 52.0416C211.12 52.7296 210.862 53.2886 210.375 53.7186C209.888 54.1486 209.171 54.3636 208.225 54.3636C207.279 54.3636 206.505 54.1629 205.903 53.7616C205.33 53.3602 204.814 52.7439 204.355 51.9126L200.227 44.3016C199.797 43.4989 199.267 42.9542 198.636 42.6676C198.034 42.3809 197.289 42.2376 196.4 42.2376H193.132V50.9236C193.132 52.0129 192.845 52.8586 192.272 53.4606C191.727 54.0626 190.91 54.3636 189.821 54.3636ZM193.132 37.4216H199.109C200.886 37.4216 202.219 37.0632 203.108 36.3466C204.025 35.6299 204.484 34.5549 204.484 33.1216C204.484 31.7169 204.025 30.6562 203.108 29.9396C202.219 29.2229 200.886 28.8646 199.109 28.8646H193.132V37.4216ZM225.409 54.4496C223.144 54.4496 221.166 54.0052 219.475 53.1166C217.812 52.2279 216.522 50.9522 215.605 49.2896C214.687 47.6269 214.229 45.6632 214.229 43.3986C214.229 41.7072 214.487 40.1879 215.003 38.8406C215.519 37.4932 216.264 36.3466 217.239 35.4006C218.242 34.4259 219.432 33.6949 220.808 33.2076C222.184 32.6916 223.717 32.4336 225.409 32.4336C227.673 32.4336 229.637 32.8779 231.3 33.7666C232.991 34.6552 234.295 35.9166 235.213 37.5506C236.159 39.1846 236.632 41.1339 236.632 43.3986C236.632 45.1186 236.359 46.6522 235.815 47.9996C235.299 49.3469 234.553 50.5079 233.579 51.4826C232.604 52.4572 231.414 53.2026 230.01 53.7186C228.634 54.2059 227.1 54.4496 225.409 54.4496ZM225.409 49.5906C226.355 49.5906 227.172 49.3612 227.86 48.9026C228.548 48.4439 229.092 47.7702 229.494 46.8816C229.895 45.9642 230.096 44.8032 230.096 43.3986C230.096 41.3059 229.666 39.7722 228.806 38.7976C227.946 37.7942 226.813 37.2926 225.409 37.2926C224.491 37.2926 223.674 37.5076 222.958 37.9376C222.27 38.3676 221.725 39.0412 221.324 39.9586C220.951 40.8472 220.765 41.9939 220.765 43.3986C220.765 45.4912 221.195 47.0536 222.055 48.0856C222.915 49.0889 224.033 49.5906 225.409 49.5906ZM247.72 54.4496C246.172 54.4496 244.782 54.1486 243.549 53.5466C242.316 52.9446 241.356 52.1276 240.668 51.0956C239.98 50.0636 239.636 48.9026 239.636 47.6126C239.636 46.0646 240.037 44.8462 240.84 43.9576C241.643 43.0402 242.947 42.3952 244.753 42.0226C246.559 41.6212 248.953 41.4206 251.934 41.4206H254.213V44.7746H251.977C250.515 44.7746 249.325 44.8606 248.408 45.0326C247.519 45.1759 246.874 45.4339 246.473 45.8066C246.1 46.1792 245.914 46.6952 245.914 47.3546C245.914 48.1572 246.186 48.8166 246.731 49.3326C247.304 49.8486 248.121 50.1066 249.182 50.1066C250.013 50.1066 250.744 49.9202 251.375 49.5476C252.034 49.1462 252.55 48.6159 252.923 47.9566C253.296 47.2686 253.482 46.4946 253.482 45.6346V40.6896C253.482 39.4282 253.195 38.5396 252.622 38.0236C252.049 37.4789 251.074 37.2066 249.698 37.2066C248.924 37.2066 248.078 37.3069 247.161 37.5076C246.272 37.6796 245.283 37.9806 244.194 38.4106C243.563 38.6972 243.004 38.7689 242.517 38.6256C242.03 38.4536 241.657 38.1669 241.399 37.7656C241.141 37.3356 241.012 36.8769 241.012 36.3896C241.012 35.8736 241.155 35.3862 241.442 34.9276C241.729 34.4402 242.202 34.0819 242.861 33.8526C244.208 33.3079 245.47 32.9352 246.645 32.7346C247.849 32.5339 248.953 32.4336 249.956 32.4336C252.163 32.4336 253.969 32.7632 255.374 33.4226C256.807 34.0532 257.882 35.0422 258.599 36.3896C259.316 37.7082 259.674 39.4139 259.674 41.5066V51.0526C259.674 52.1132 259.416 52.9302 258.9 53.5036C258.384 54.0769 257.639 54.3636 256.664 54.3636C255.689 54.3636 254.93 54.0769 254.385 53.5036C253.869 52.9302 253.611 52.1132 253.611 51.0526V49.4616L253.912 49.7196C253.74 50.6942 253.367 51.5399 252.794 52.2566C252.249 52.9446 251.547 53.4892 250.687 53.8906C249.827 54.2632 248.838 54.4496 247.72 54.4496ZM272.73 54.4496C270.896 54.4496 269.276 54.0052 267.871 53.1166C266.495 52.2279 265.42 50.9522 264.646 49.2896C263.872 47.6269 263.485 45.6632 263.485 43.3986C263.485 41.1339 263.872 39.1846 264.646 37.5506C265.42 35.9166 266.495 34.6552 267.871 33.7666C269.276 32.8779 270.896 32.4336 272.73 32.4336C274.393 32.4336 275.855 32.8349 277.116 33.6376C278.406 34.4402 279.281 35.4866 279.739 36.7766H279.266V26.5856C279.266 25.4962 279.539 24.6792 280.083 24.1346C280.628 23.5612 281.431 23.2746 282.491 23.2746C283.523 23.2746 284.326 23.5612 284.899 24.1346C285.473 24.6792 285.759 25.4962 285.759 26.5856V51.0526C285.759 52.1132 285.473 52.9302 284.899 53.5036C284.355 54.0769 283.566 54.3636 282.534 54.3636C281.502 54.3636 280.7 54.0769 280.126 53.5036C279.582 52.9302 279.309 52.1132 279.309 51.0526V48.1286L279.782 49.8056C279.381 51.2102 278.521 52.3426 277.202 53.2026C275.912 54.0339 274.422 54.4496 272.73 54.4496ZM274.665 49.5906C275.611 49.5906 276.428 49.3612 277.116 48.9026C277.804 48.4439 278.349 47.7702 278.75 46.8816C279.152 45.9642 279.352 44.8032 279.352 43.3986C279.352 41.3059 278.922 39.7722 278.062 38.7976C277.202 37.7942 276.07 37.2926 274.665 37.2926C273.748 37.2926 272.931 37.5076 272.214 37.9376C271.526 38.3676 270.982 39.0412 270.58 39.9586C270.208 40.8472 270.021 41.9939 270.021 43.3986C270.021 45.4912 270.451 47.0536 271.311 48.0856C272.171 49.0889 273.289 49.5906 274.665 49.5906Z" fill="black"/>
<path d="M6.45 54.3636C5.36067 54.3636 4.515 54.0626 3.913 53.4606C3.33967 52.8586 3.053 51.9842 3.053 50.8376V27.1446C3.053 26.0266 3.354 25.1666 3.956 24.5646C4.558 23.9626 5.418 23.6616 6.536 23.6616H21.242C22.102 23.6616 22.747 23.8909 23.177 24.3496C23.6357 24.7796 23.865 25.4102 23.865 26.2416C23.865 27.1016 23.6357 27.7609 23.177 28.2196C22.747 28.6496 22.102 28.8646 21.242 28.8646H9.718V36.2606H20.296C21.156 36.2606 21.8153 36.4899 22.274 36.9486C22.7327 37.3786 22.962 38.0092 22.962 38.8406C22.962 39.6719 22.7327 40.3169 22.274 40.7756C21.8153 41.2342 21.156 41.4636 20.296 41.4636H9.718V50.8376C9.718 53.1882 8.62867 54.3636 6.45 54.3636ZM32.0071 54.3206C30.9465 54.3206 30.1295 54.0196 29.5561 53.4176C29.0115 52.7869 28.7391 51.9126 28.7391 50.7946V36.0886C28.7391 34.9419 29.0115 34.0676 29.5561 33.4656C30.1295 32.8349 30.9465 32.5196 32.0071 32.5196C33.0391 32.5196 33.8275 32.8349 34.3721 33.4656C34.9455 34.0676 35.2321 34.9419 35.2321 36.0886V50.7946C35.2321 51.9126 34.9598 52.7869 34.4151 53.4176C33.8705 54.0196 33.0678 54.3206 32.0071 54.3206ZM32.0071 28.9936C30.8031 28.9936 29.8715 28.7212 29.2121 28.1766C28.5815 27.6032 28.2661 26.8006 28.2661 25.7686C28.2661 24.7079 28.5815 23.9052 29.2121 23.3606C29.8715 22.7872 30.8031 22.5006 32.0071 22.5006C33.2111 22.5006 34.1285 22.7872 34.7591 23.3606C35.3898 23.9052 35.7051 24.7079 35.7051 25.7686C35.7051 26.8006 35.3898 27.6032 34.7591 28.1766C34.1285 28.7212 33.2111 28.9936 32.0071 28.9936ZM42.481 54.2776C41.6783 54.2776 41.0333 54.0626 40.546 53.6326C40.0586 53.1739 39.8006 52.6006 39.772 51.9126C39.772 51.2246 40.0586 50.5222 40.632 49.8056L47.297 41.6356V44.5596L41.105 36.9916C40.503 36.2462 40.2163 35.5296 40.245 34.8416C40.2736 34.1536 40.5316 33.5946 41.019 33.1646C41.5063 32.7346 42.1513 32.5196 42.954 32.5196C43.728 32.5196 44.373 32.6486 44.889 32.9066C45.405 33.1646 45.8923 33.5946 46.351 34.1966L50.952 40.0876H48.673L53.274 34.1966C53.7613 33.5946 54.263 33.1646 54.779 32.9066C55.295 32.6486 55.9256 32.5196 56.671 32.5196C57.4736 32.5196 58.1186 32.7489 58.606 33.2076C59.0933 33.6376 59.337 34.1966 59.337 34.8846C59.3656 35.5726 59.079 36.2749 58.477 36.9916L52.285 44.5596V41.6356L58.993 49.8056C59.595 50.4936 59.8816 51.1816 59.853 51.8696C59.8243 52.5576 59.552 53.1309 59.036 53.5896C58.5486 54.0482 57.9036 54.2776 57.101 54.2776C56.327 54.2776 55.682 54.1486 55.166 53.8906C54.6786 53.6039 54.1913 53.1739 53.704 52.6006L48.673 46.1936H50.866L45.835 52.6006C45.3763 53.1452 44.889 53.5609 44.373 53.8476C43.8856 54.1342 43.255 54.2776 42.481 54.2776Z" fill="black"/>
<rect x="74.7969" width="97.3416" height="78.8516" rx="16" fill="#FFA500"/>
<path d="M91.0889 54.424C89.5342 54.424 88.4389 54 87.8029 53.152C87.2022 52.304 86.9902 51.138 87.1669 49.654L91.8309 20.239C92.0782 18.861 92.5905 17.8363 93.3679 17.165C94.1805 16.4937 95.2582 16.158 96.6009 16.158C97.8022 16.158 98.7562 16.423 99.4629 16.953C100.17 17.4477 100.77 18.331 101.265 19.603L109.109 39.69H107.519L122.306 18.914C123.013 17.9247 123.755 17.218 124.532 16.794C125.345 16.37 126.352 16.158 127.553 16.158C129.037 16.158 130.132 16.582 130.839 17.43C131.581 18.2427 131.828 19.4087 131.581 20.928L126.917 50.343C126.705 51.6857 126.193 52.7103 125.38 53.417C124.567 54.0883 123.472 54.424 122.094 54.424C120.645 54.424 119.585 54 118.914 53.152C118.243 52.304 118.013 51.138 118.225 49.654L121.087 31.475H122.306L111.229 46.898C110.699 47.64 110.151 48.17 109.586 48.488C109.021 48.806 108.314 48.965 107.466 48.965C106.547 48.965 105.823 48.753 105.293 48.329C104.763 47.905 104.286 47.2513 103.862 46.368L97.6609 31.793H98.8269L95.8589 50.343C95.6469 51.6857 95.1345 52.7103 94.3219 53.417C93.5445 54.0883 92.4669 54.424 91.0889 54.424ZM138.778 64.017C137.612 64.017 136.693 63.752 136.022 63.222C135.386 62.7273 135.032 62.056 134.962 61.208C134.926 60.36 135.191 59.459 135.757 58.505L140.792 50.343L140.262 54.159L134.538 33.701C134.184 32.4643 134.131 31.3867 134.379 30.468C134.661 29.514 135.174 28.772 135.916 28.242C136.658 27.712 137.594 27.447 138.725 27.447C139.997 27.447 140.968 27.7473 141.64 28.348C142.311 28.9487 142.823 30.044 143.177 31.634L146.251 44.99H144.449L152.505 30.733C153.176 29.5317 153.883 28.6837 154.625 28.189C155.402 27.6943 156.391 27.447 157.593 27.447C158.759 27.447 159.677 27.712 160.349 28.242C161.02 28.7367 161.391 29.408 161.462 30.256C161.532 31.0687 161.267 31.9697 160.667 32.959L143.919 60.678C143.212 61.8793 142.488 62.7273 141.746 63.222C141.004 63.752 140.014 64.017 138.778 64.017Z" fill="#FFF9F9"/>
</svg>
