<svg width="74" height="68" viewBox="0 0 74 68" fill="none" xmlns="http://www.w3.org/2000/svg">
<path d="M15.8444 0C10.14 0 5.48438 4.27811 5.48438 9.52V47.6C5.48438 52.8419 10.14 57.12 15.8444 57.12H57.2844C62.9888 57.12 67.6444 52.8419 67.6444 47.6V9.52C67.6444 4.27811 62.9888 0 57.2844 0H15.8444ZM15.8444 2.72H57.2844C61.3894 2.72 64.6844 5.74781 64.6844 9.52V47.6C64.6844 51.3722 61.3894 54.4 57.2844 54.4H15.8444C11.7393 54.4 8.44438 51.3722 8.44438 47.6V9.52C8.44438 5.74781 11.7393 2.72 15.8444 2.72ZM18.9316 12.24L32.5811 30.0608L18.8044 44.88H22.5044L34.2519 32.2416L43.9297 44.88H55.6772L40.6922 25.3141L52.8444 12.24H49.1444L39.0214 23.1333L30.6791 12.24H18.9316ZM24.5972 14.96H29.1326L50.0116 42.16H45.4762L24.5972 14.96Z" fill="white"/>
</svg>
